<?xml version="1.0" encoding="UTF-8" standalone="no"?>
<svg
   viewBox="0 0 512 512"
   version="1.1"
   id="svg423"
   sodipodi:docname="notes-medical-solid.svg"
   inkscape:version="1.2.2 (b0a8486541, 2022-12-01)"
   xmlns:inkscape="http://www.inkscape.org/namespaces/inkscape"
   xmlns:sodipodi="http://sodipodi.sourceforge.net/DTD/sodipodi-0.dtd"
   xmlns="http://www.w3.org/2000/svg"
   xmlns:svg="http://www.w3.org/2000/svg">
  <defs
     id="defs427" />
  <sodipodi:namedview
     id="namedview425"
     pagecolor="#ffffff"
     bordercolor="#111111"
     borderopacity="1"
     inkscape:showpageshadow="0"
     inkscape:pageopacity="0"
     inkscape:pagecheckerboard="1"
     inkscape:deskcolor="#d1d1d1"
     showgrid="false"
     inkscape:zoom="0.4609375"
     inkscape:cx="256"
     inkscape:cy="257.08475"
     inkscape:window-width="1298"
     inkscape:window-height="848"
     inkscape:window-x="0"
     inkscape:window-y="0"
     inkscape:window-maximized="1"
     inkscape:current-layer="svg423" />
  <!--! Font Awesome Pro 6.4.0 by @fontawesome - https://fontawesome.com License - https://fontawesome.com/license (Commercial License) Copyright 2023 Fonticons, Inc. -->
  <path
     d="M96 352V96c0-35.3 28.7-64 64-64H416c35.3 0 64 28.7 64 64V293.5c0 17-6.7 33.3-18.7 45.3l-58.5 58.5c-12 12-28.3 18.7-45.3 18.7H160c-35.3 0-64-28.7-64-64zM272 128c-8.8 0-16 7.2-16 16v48H208c-8.8 0-16 7.2-16 16v32c0 8.8 7.2 16 16 16h48v48c0 8.8 7.2 16 16 16h32c8.8 0 16-7.2 16-16V256h48c8.8 0 16-7.2 16-16V208c0-8.8-7.2-16-16-16H320V144c0-8.8-7.2-16-16-16H272zm24 336c13.3 0 24 10.7 24 24s-10.7 24-24 24H136C60.9 512 0 451.1 0 376V152c0-13.3 10.7-24 24-24s24 10.7 24 24l0 224c0 48.6 39.4 88 88 88H296z"
     id="path421"
     style="fill:#ffffff" />
</svg>
